<svg width="341" height="300" viewBox="0 0 341 300" fill="none" xmlns="http://www.w3.org/2000/svg">
<path fill-rule="evenodd" clip-rule="evenodd" d="M169.31 0.747467C204.881 -3.14712 242.238 8.32409 269.375 31.7325C295.489 54.2596 300.318 90.9111 311.662 123.543C323.316 157.065 352.192 192.69 336.372 224.447C320.243 256.827 272.823 252.663 239.937 267.532C215.738 278.473 195.846 299.441 169.31 299.982C142.505 300.528 116.108 288.88 96.5707 270.452C78.3607 253.276 80.0698 224.674 66.8831 203.369C46.9499 171.164 -3.99663 152.506 0.250226 114.833C4.26448 79.2233 54.3122 72.0306 83.9429 52.0352C112.155 32.9969 135.515 4.44771 169.31 0.747467Z" fill="#998792"/>
</svg>
