<svg width="488" height="407" viewBox="0 0 488 407" fill="none" xmlns="http://www.w3.org/2000/svg">
<path opacity="0.2" d="M488 72.1248C488 257.903 192 125.903 192 345.903C192 565.903 0 118.125 0 118.125C0 118.125 488 -113.654 488 72.1248Z" fill="url(#paint0_linear)"/>
<g clip-path="url(#clip0)">
<path d="M411.328 199.823L353.855 184.423C351.589 183.816 350.243 181.484 350.85 179.218L360.75 142.271C361.357 140.005 363.689 138.659 365.955 139.266L423.428 154.666C425.694 155.273 427.04 157.605 426.433 159.871L416.533 196.818C415.926 199.084 413.594 200.43 411.328 199.823Z" fill="#FA7F75"/>
<path d="M411.328 199.823L353.855 184.423C351.552 183.806 350.233 181.521 350.85 179.218C351.025 178.565 351.502 178.033 352.131 177.788L388.42 165.512C388.852 165.342 389.314 165.325 389.741 165.439C390.168 165.554 390.56 165.8 390.85 166.163L416.139 194.939C416.561 195.466 416.708 196.165 416.533 196.818C415.916 199.121 413.631 200.44 411.328 199.823Z" fill="#FAA095"/>
<g filter="url(#filter0_d)">
<path d="M423.428 154.666L365.955 139.266C363.652 138.649 361.367 139.968 360.75 142.271C360.575 142.924 360.722 143.624 361.144 144.15L386.024 174.519C386.6 175.224 387.565 175.482 388.417 175.16L425.148 161.3C425.781 161.056 426.258 160.524 426.433 159.871C427.05 157.568 425.731 155.283 423.428 154.666Z" fill="#FC8A95"/>
</g>
</g>
<g clip-path="url(#clip1)">
<path d="M299.544 186.481C299.544 185.891 299.192 185.358 298.651 185.126L251.761 165.03C251.225 164.8 250.603 164.909 250.176 165.307C249.749 165.704 249.597 166.317 249.788 166.868L256.59 186.481L249.788 206.093C249.602 206.628 249.74 207.22 250.138 207.618C250.15 207.631 250.163 207.643 250.176 207.655C250.603 208.053 251.225 208.161 251.761 207.931L298.651 187.836C299.193 187.603 299.544 187.071 299.544 186.481Z" fill="#AC5BFF"/>
<path d="M299.544 186.481L256.589 186.481L249.788 206.093C249.602 206.628 249.74 207.22 250.138 207.618C250.15 207.631 250.163 207.643 250.176 207.655C250.603 208.052 251.224 208.161 251.761 207.931L298.65 187.836C299.192 187.603 299.544 187.07 299.544 186.481Z" fill="#8761FF"/>
</g>
<defs>
<filter id="filter0_d" x="356.677" y="139.115" width="73.9068" height="44.1826" filterUnits="userSpaceOnUse" color-interpolation-filters="sRGB">
<feFlood flood-opacity="0" result="BackgroundImageFix"/>
<feColorMatrix in="SourceAlpha" type="matrix" values="0 0 0 0 0 0 0 0 0 0 0 0 0 0 0 0 0 0 127 0"/>
<feOffset dy="4"/>
<feGaussianBlur stdDeviation="2"/>
<feColorMatrix type="matrix" values="0 0 0 0 0 0 0 0 0 0 0 0 0 0 0 0 0 0 0.25 0"/>
<feBlend mode="normal" in2="BackgroundImageFix" result="effect1_dropShadow"/>
<feBlend mode="normal" in="SourceGraphic" in2="effect1_dropShadow" result="shape"/>
</filter>
<linearGradient id="paint0_linear" x1="130" y1="251.403" x2="527.5" y2="117.403" gradientUnits="userSpaceOnUse">
<stop stop-color="#DA511A"/>
<stop offset="1" stop-color="#582973"/>
</linearGradient>
<clipPath id="clip0">
<rect width="68" height="68" fill="white" transform="translate(364.6 127.903) rotate(15)"/>
</clipPath>
<clipPath id="clip1">
<rect width="50.3137" height="50.3137" fill="white" transform="translate(264.577 150.903) rotate(45)"/>
</clipPath>
</defs>
</svg>
