<svg width="16" height="16" viewBox="0 0 16 16" fill="none" xmlns="http://www.w3.org/2000/svg">
<path d="M15.8627 4.549L11.451 0.137312C11.3631 0.0494062 11.2439 0 11.1196 0H4.88044C4.75612 0 4.63691 0.0494062 4.549 0.137312L0.137312 4.549C0.0494062 4.63691 0 4.75612 0 4.88044V11.1195C0 11.2438 0.0494062 11.3631 0.137312 11.451L4.549 15.8627C4.63691 15.9506 4.75612 16 4.88044 16H11.1195C11.2438 16 11.3631 15.9506 11.451 15.8627L15.8627 11.451C15.9506 11.3631 16 11.2438 16 11.1195V4.88044C16 4.75612 15.9506 4.63691 15.8627 4.549V4.549Z" fill="#F25A3C"/>
<path d="M16 4.88031V11.1197C16 11.2437 15.9506 11.3631 15.8628 11.4509L11.4509 15.8628C11.3631 15.9506 11.2437 16 11.1197 16H8V0H11.1197C11.2437 0 11.3631 0.049375 11.4509 0.137187L15.8628 4.54906C15.9506 4.63688 16 4.75625 16 4.88031Z" fill="#E43539"/>
<path d="M7.41159 3.3125H8.58841C8.86116 3.3125 9.07632 3.54444 9.05585 3.81644L8.65607 9.12894C8.63766 9.3735 8.43388 9.5625 8.18863 9.5625H7.81134C7.56609 9.5625 7.36231 9.37347 7.34391 9.12894L6.94415 3.81644C6.92372 3.54444 7.13884 3.3125 7.41159 3.3125V3.3125Z" fill="#E9F3FB"/>
<path d="M9.05594 3.81656L8.65594 9.12906C8.63782 9.37344 8.43375 9.5625 8.18875 9.5625H8V3.3125H8.58844C8.86125 3.3125 9.07626 3.54437 9.05594 3.81656V3.81656Z" fill="#D6E9F8"/>
<path d="M7.06406 11.7484V11.7516C7.06406 12.2685 7.48309 12.6875 7.99999 12.6875C8.5169 12.6875 8.93593 12.2685 8.93593 11.7516V11.7484C8.93593 11.2315 8.5169 10.8125 7.99999 10.8125C7.48309 10.8125 7.06406 11.2315 7.06406 11.7484Z" fill="#E9F3FB"/>
<path d="M8.93594 11.7484V11.7516C8.93594 12.01 8.83125 12.2441 8.66187 12.4134C8.4925 12.5828 8.25844 12.6875 8 12.6875V10.8125C8.51688 10.8125 8.93594 11.2316 8.93594 11.7484Z" fill="#D6E9F8"/>
</svg>
