<svg width="2036" height="115" viewBox="0 0 2036 115" fill="none" xmlns="http://www.w3.org/2000/svg">
<path d="M396.507 31.3499L423.535 38.8197L414.847 33.3157C419.835 32.9225 433.574 33.0798 448.633 36.854L444.289 29.3842C448.955 28.991 460.023 29.9346 466.973 36.854C470.939 34.27 478.157 28.1447 475.769 24.0543C475.732 23.9954 475.696 23.9373 475.661 23.8802C475.699 23.9378 475.735 23.9958 475.769 24.0543C478.453 28.314 486.336 36.9583 497.38 38.8197L490.623 33.3157L518.617 38.8197C520.065 37.6403 521.609 34.8883 516.204 33.3157C510.798 31.7431 522.639 35.0193 529.235 36.854L540.819 33.3157V36.854C547.093 35.5435 562.055 34.6524 571.708 41.5718L575.569 33.3157L577.982 38.8197C582.326 30.8257 591.593 14.6805 593.91 14.0515C596.806 13.2652 580.396 34.4952 601.15 56.5115L604.528 48.6485L608.872 52.9732C611.446 45.2412 619.394 30.485 630.591 33.3157C623.995 37.6403 611.382 47.6263 613.698 52.9732C623.512 49.0417 644.974 41.6505 652.31 43.5376L647.966 52.9732L652.31 50.8108C656.193 52.0847 662.419 54.2126 665.403 55.477C663.378 52.3107 662.636 42.7298 666.79 38.8197C669.336 36.4228 686.096 49.0417 686.096 65.1607L691.405 52.9732L694.783 61.2293L703.471 58.8704L697.679 67.5196C703.954 65.4228 718.433 61.6224 726.155 63.195L722.294 67.5196C726.638 66.0781 737.256 64.4531 744.979 69.4854V58.8704C752.379 60.8361 768.435 68.2273 773.455 82.0661L776.833 69.4854L781.66 74.5963V63.195C781.66 61.6224 790.991 76.431 795.657 84.0319L800.483 76.562C804.988 77.2173 812.646 76.3262 807.24 67.5196C812.871 67.6507 824.133 72.0015 824.133 88.3565L850.679 82.0661L842.474 90.7154L850.679 88.3565L842.474 97.0057C849.07 93.8606 865.737 88.1992 879.638 90.7154C883.66 89.5359 892.186 88.8283 894.117 95.4331C895.404 92.0259 895.565 84.0319 885.912 79.3141C889.934 79.4451 899.33 82.6165 904.735 94.2537L908.596 90.7154H922.593L915.353 95.4331C919.054 94.6469 927.227 93.3102 930.316 94.2537L931.764 88.3565L935.142 94.2537V114.304H396.507V31.3499Z" fill="url(#paint0_linear)"/>
<path d="M396.959 30.4537L377.052 37.8929L383.45 32.4114C379.777 32.0199 369.658 32.1765 358.566 35.9353L361.766 28.4961C358.329 28.1045 350.177 29.0442 345.058 35.9353C342.137 33.3618 336.821 27.2617 338.579 23.188C338.607 23.1294 338.633 23.0715 338.659 23.0146C338.631 23.072 338.604 23.1298 338.579 23.188C336.603 27.4303 330.797 36.0392 322.662 37.8929L327.639 32.4114L307.021 37.8929C305.954 36.7183 304.817 33.9776 308.798 32.4114C312.779 30.8453 304.058 34.1081 299.2 35.9353L290.668 32.4114V35.9353C286.047 34.6302 275.027 33.7427 267.917 40.6337L265.073 32.4114L263.296 37.8929C260.096 29.9317 253.271 13.8526 251.564 13.2262C249.432 12.4431 261.518 33.5861 246.232 55.5121L243.744 47.6814L240.544 51.9883C238.648 44.2881 232.795 29.5924 224.547 32.4114C229.406 36.7184 238.696 46.6634 236.989 51.9883C229.761 48.073 213.954 40.7121 208.55 42.5915L211.75 51.9883L208.55 49.8349C205.691 51.1036 201.105 53.2228 198.907 54.4819C200.399 51.3286 200.945 41.787 197.886 37.8929C196.01 35.5058 183.666 48.073 183.666 64.126L179.756 51.9883L177.267 60.2106L170.869 57.8614L175.135 66.4752C170.513 64.387 159.849 60.6021 154.161 62.1683L157.005 66.4752C153.805 65.0396 145.984 63.4212 140.297 68.4329V57.8614C134.846 59.8191 123.02 67.18 119.323 80.9621L116.835 68.4329L113.28 73.5229V62.1683C113.28 60.6021 106.407 75.35 102.97 82.9197L99.4156 75.4805C96.0977 76.1331 90.4573 75.2456 94.4388 66.4752C90.2914 66.6057 81.9967 70.9387 81.9967 87.2266L62.4449 80.9621L68.4881 89.5759L62.4449 87.2266L68.4881 95.8405C63.6298 92.7082 51.3536 87.07 41.1156 89.5759C38.1532 88.4013 31.8729 87.6965 30.451 94.2743C29.503 90.881 29.3845 82.9197 36.4942 78.2213C33.5318 78.3518 26.6117 81.5102 22.6302 93.0997L19.7863 89.5759H9.47714L14.8095 94.2743C12.0841 93.4912 6.06445 92.16 3.78934 93.0997L2.72287 87.2266L0.234467 93.0997V113.068H396.959V30.4537Z" fill="url(#paint1_linear)"/>
<path d="M1561.15 40.8379L1584.97 47.4164L1577.31 42.5691C1581.71 42.2229 1593.82 42.3614 1607.09 45.6852L1603.26 39.1067C1607.37 38.7605 1617.12 39.5915 1623.25 45.6852C1626.74 43.4095 1633.1 38.0152 1631 34.4128C1630.97 34.361 1630.94 34.3099 1630.9 34.2595C1630.94 34.3102 1630.97 34.3614 1631 34.4128C1633.36 38.1643 1640.31 45.7771 1650.04 47.4164L1644.09 42.5691L1668.76 47.4164C1670.04 46.3777 1671.4 43.954 1666.63 42.5691C1661.87 41.1842 1672.3 44.0694 1678.12 45.6852L1688.32 42.5691V45.6852C1693.85 44.5311 1707.04 43.7463 1715.55 49.8401L1718.95 42.5691L1721.08 47.4164C1724.9 40.3763 1733.07 26.1576 1735.11 25.6036C1737.66 24.9111 1723.2 43.6078 1741.49 62.997L1744.47 56.0723L1748.3 59.8809C1750.56 53.0716 1757.57 40.0762 1767.44 42.5691C1761.62 46.3777 1750.51 55.1721 1752.55 59.8809C1761.2 56.4186 1780.11 49.9093 1786.58 51.5713L1782.75 59.8809L1786.58 57.9766C1790 59.0985 1795.48 60.9725 1798.11 62.086C1796.33 59.2975 1795.68 50.8599 1799.34 47.4164C1801.58 45.3054 1816.35 56.4186 1816.35 70.6142L1821.03 59.8809L1824.01 67.1518L1831.66 65.0744L1826.56 72.6916C1832.09 70.845 1844.85 67.4981 1851.65 68.883L1848.25 72.6916C1852.08 71.4221 1861.43 69.991 1868.24 74.4228V65.0744C1874.76 66.8056 1888.91 73.3148 1893.33 85.5023L1896.31 74.4228L1900.57 78.9238V68.883C1900.57 67.4981 1908.79 80.5396 1912.9 87.2335L1917.15 80.655C1921.12 81.2321 1927.87 80.4473 1923.11 72.6916C1928.07 72.807 1937.99 76.6387 1937.99 91.0421L1961.39 85.5023L1954.16 93.1195L1961.39 91.0421L1954.16 98.6592C1959.97 95.8893 1974.66 90.9036 1986.91 93.1195C1990.45 92.0808 1997.97 91.4575 1999.67 97.2743C2000.8 94.2736 2000.94 87.2335 1992.44 83.0786C1995.98 83.1941 2004.26 85.987 2009.02 96.2356L2012.43 93.1195H2024.76L2018.38 97.2743C2021.64 96.5818 2028.85 95.4046 2031.57 96.2356L2032.84 91.0421L2035.82 96.2356V113.894H1561.15V40.8379Z" fill="url(#paint2_linear)"/>
<path d="M1429.24 48.251L1369.01 28.1564L1378.87 21.9048C1373.21 21.4582 1357.63 21.6368 1340.55 25.9237L1345.47 17.4393C1340.18 16.9928 1327.62 18.0645 1319.74 25.9237C1315.24 22.9887 1307.06 16.0315 1309.76 11.3855C1309.81 11.3186 1309.85 11.2527 1309.89 11.1877C1309.84 11.2532 1309.8 11.3191 1309.76 11.3855C1306.72 16.2238 1297.78 26.0422 1285.25 28.1564L1292.91 21.9048L1261.16 28.1564C1259.52 26.8168 1257.77 23.691 1263.9 21.9048C1270.03 20.1186 1256.6 23.8398 1249.12 25.9237L1235.98 21.9048V25.9237C1228.86 24.4352 1211.89 23.4231 1200.94 31.2823L1196.56 21.9048L1193.82 28.1564C1188.89 19.0767 1178.38 0.738535 1175.75 0.0240612C1172.47 -0.869031 1191.08 23.2445 1167.54 48.251L1163.71 39.3201L1158.78 44.2322C1155.86 35.4501 1146.85 18.6896 1134.15 21.9048C1141.63 26.8168 1155.94 38.1591 1153.31 44.2322C1142.18 39.7667 1117.83 31.3716 1109.51 33.515L1114.44 44.2322L1109.51 41.7761C1105.1 43.2231 1098.04 45.64 1094.66 47.076C1096.95 43.4797 1097.8 32.5975 1093.08 28.1564C1090.2 25.4339 1071.19 39.7667 1071.19 58.0751L1065.16 44.2322L1061.33 53.6096L1051.48 50.9303L1058.05 60.7544C1050.93 58.3728 1034.5 54.0562 1025.75 55.8424L1030.12 60.7544C1025.2 59.117 1013.15 57.2713 1004.39 62.9871V50.9303C995.999 53.1631 977.786 61.5581 972.092 77.2766L968.26 62.9871L962.785 68.7922V55.8424C962.785 54.0562 952.201 70.8761 946.908 79.5093L941.433 71.0249C936.324 71.7692 927.637 70.757 933.769 60.7544C927.381 60.9032 914.607 65.845 914.607 84.4213L884.496 77.2766L893.803 87.1006L884.496 84.4213L893.803 94.2453C886.321 90.6729 867.414 84.2427 851.647 87.1006C847.085 85.7609 837.413 84.9571 835.223 92.4591C833.763 88.5891 833.58 79.5093 844.53 74.1507C839.967 74.2996 829.31 77.9017 823.178 91.1195L818.798 87.1006H802.921L811.134 92.4591C806.936 91.566 797.666 90.0478 794.162 91.1195L792.519 84.4213L788.687 91.1195V113.893H1399.67L1429.24 48.251Z" fill="url(#paint3_linear)"/>
<path d="M1595.13 40.8379L1571.31 47.4164L1578.96 42.5691C1574.57 42.2229 1562.46 42.3614 1549.19 45.6852L1553.02 39.1067C1548.91 38.7605 1539.15 39.5915 1533.03 45.6852C1529.53 43.4095 1523.17 38.0152 1525.28 34.4129C1525.31 34.361 1525.34 34.3099 1525.37 34.2595C1525.34 34.3102 1525.31 34.3614 1525.28 34.4129C1522.91 38.1643 1515.97 45.7771 1506.23 47.4164L1512.19 42.5691L1487.52 47.4164C1486.24 46.3777 1484.88 43.954 1489.64 42.5691C1494.41 41.1842 1483.97 44.0694 1478.16 45.6852L1467.95 42.5691V45.6852C1462.42 44.5311 1449.24 43.7463 1440.73 49.8401L1437.33 42.5691L1435.2 47.4164C1431.37 40.3763 1423.21 26.1576 1421.17 25.6036C1418.61 24.9111 1433.08 43.6078 1414.79 62.997L1411.81 56.0723L1407.98 59.8809C1405.71 53.0716 1398.71 40.0762 1388.84 42.5691C1394.65 46.3777 1405.77 55.1721 1403.73 59.8809C1395.08 56.4186 1376.17 49.9093 1369.7 51.5713L1373.53 59.8809L1369.7 57.9766C1366.28 59.0985 1360.79 60.9725 1358.16 62.086C1359.95 59.2975 1360.6 50.8599 1356.94 47.4164C1354.7 45.3054 1339.93 56.4186 1339.93 70.6142L1335.25 59.8809L1332.27 67.1518L1324.62 65.0744L1329.72 72.6916C1324.19 70.845 1311.43 67.4981 1304.63 68.883L1308.03 72.6916C1304.2 71.4221 1294.84 69.991 1288.04 74.4228V65.0744C1281.52 66.8056 1267.37 73.3148 1262.94 85.5023L1259.97 74.4228L1255.71 78.9238V68.883C1255.71 67.4981 1247.49 80.5396 1243.38 87.2335L1239.12 80.655C1235.15 81.2321 1228.41 80.4473 1233.17 72.6916C1228.21 72.807 1218.28 76.6387 1218.28 91.0421L1194.89 85.5023L1202.12 93.1195L1194.89 91.0421L1202.12 98.6592C1196.31 95.8893 1181.62 90.9036 1169.37 93.1195C1165.83 92.0808 1158.31 91.4575 1156.61 97.2743C1155.48 94.2736 1155.33 87.2335 1163.84 83.0786C1160.3 83.1941 1152.02 85.987 1147.25 96.2356L1143.85 93.1195H1131.52L1137.9 97.2743C1134.63 96.5818 1127.43 95.4046 1124.71 96.2356L1123.43 91.0421L1120.46 96.2356V113.894H1595.13V40.8379Z" fill="url(#paint4_linear)"/>
<defs>
<linearGradient id="paint0_linear" x1="582.326" y1="27.7905" x2="582.967" y2="114.679" gradientUnits="userSpaceOnUse">
<stop stop-color="#741E1D"/>
<stop offset="0.68421" stop-color="#2B131E"/>
</linearGradient>
<linearGradient id="paint1_linear" x1="260.096" y1="26.9089" x2="259.234" y2="113.437" gradientUnits="userSpaceOnUse">
<stop stop-color="#741E1D"/>
<stop offset="0.68421" stop-color="#2B131E"/>
</linearGradient>
<linearGradient id="paint2_linear" x1="1724.9" y1="37.7032" x2="1725.47" y2="114.223" gradientUnits="userSpaceOnUse">
<stop stop-color="#611818"/>
<stop offset="0.68421" stop-color="#2B131E"/>
</linearGradient>
<linearGradient id="paint3_linear" x1="1188.89" y1="15.6291" x2="1188.17" y2="114.318" gradientUnits="userSpaceOnUse">
<stop stop-color="#731A19"/>
<stop offset="0.68421" stop-color="#2B131E"/>
</linearGradient>
<linearGradient id="paint4_linear" x1="1431.37" y1="37.7032" x2="1430.81" y2="114.223" gradientUnits="userSpaceOnUse">
<stop stop-color="#611818"/>
<stop offset="0.68421" stop-color="#2B131E"/>
</linearGradient>
</defs>
</svg>
