<svg width="20" height="20" viewBox="0 0 20 20" fill="none" xmlns="http://www.w3.org/2000/svg">
<path d="M4.00917 0H17.8535C19.039 0 20 1.14458 20 2.33003C20 3.51548 19.039 4.2929 17.8535 4.2929H7.8975C5.74497 4.2929 4 6.03787 4 8.1904V10.0879C4 11.1925 3.10457 12.0879 2 12.0879C0.89543 12.0879 0 11.1927 0 10.0881V3.38913C0 1.76086 1.68238 0.681383 2.8821 0.193509C3.23878 0.0484599 3.62412 0 4.00917 0Z" fill="#FDFDFE"/>
<path d="M15.9908 20L2.14645 20C0.961 20 1.80729e-06 18.8554 1.70365e-06 17.67C1.60002e-06 16.4845 0.961 15.7071 2.14645 15.7071L14.0256 15.7071C15.116 15.7071 16 14.8231 16 13.7327C16 12.6422 15.116 11.7582 14.0256 11.7582L9.39561 11.7582C8.33352 11.7582 7.47253 10.8973 7.47253 9.83517C7.47253 8.77308 8.33352 7.91209 9.3956 7.91209L16 7.91209C18.2091 7.91209 20 9.70285 20 11.912L20 16.6109C20 18.2391 18.3176 19.3186 17.1179 19.8065C16.7612 19.9515 16.3759 20 15.9908 20Z" fill="#FDFDFE"/>
</svg>
