<svg width="742px" height="768px" viewBox="0 0 742 768" version="1.1" fill="none" xmlns="http://www.w3.org/2000/svg" xmlns:xlink="http://www.w3.org/1999/xlink">
          <defs> 
            <clipPath id="myClip2">
              <path d="M31.223868,19.727987 C144.550861,6.57599568 257.877853,0 371.204846,0 C484.531838,0 597.858831,6.57599567 711.185823,19.727987 C718.204865,20.5425712 723.772289,26.7720575 724.559029,34.6914953 C736.126137,151.127663 741.909692,267.563832 741.909692,384 C741.909692,500.436168 736.126137,616.872336 724.559029,733.308504 C723.77229,741.227942 718.204865,747.457429 711.185824,748.272014 C597.858831,761.424005 484.531838,768 371.204846,768 C257.877853,768 144.550861,761.424005 31.2238682,748.272014 C24.2048271,747.457429 18.6374026,741.227942 17.8506626,733.308505 C6.2835542,616.872337 0.5,500.436168 0.5,384 C0.5,267.563832 6.28355416,151.127664 17.8506625,34.6914967 C18.6374013,26.7720581 24.2048263,20.5425712 31.223868,19.727987 Z" id="path-1"></path>
            </clipPath>
          </defs>
        </svg>