<svg width="2026" height="710" viewBox="0 0 2026 710" fill="none" xmlns="http://www.w3.org/2000/svg">
<mask id="mask0" mask-type="alpha" maskUnits="userSpaceOnUse" x="0" y="0" width="2026" height="703">
<path d="M1980 692.928C1919.2 631.693 784 677.485 330 703H0V0H2026V692.928H1980Z" fill="white"/>
</mask>
<g mask="url(#mask0)">
<path d="M1558.06 41H1685.35H1707.43C1723.02 32.8851 1713.93 23.6713 1707.43 20.0787C1700.07 27.0525 1685.87 37.3229 1687.95 22.6146C1690.03 7.90636 1677.99 6.76519 1671.71 8.03314C1664.57 14.7956 1650.28 25.7845 1650.28 15.6409C1650.28 5.49725 1645.52 6.34254 1643.14 8.03314C1637.29 14.7956 1625.73 25.7845 1626.25 15.6409C1626.77 5.49725 1619.11 6.34254 1615.21 8.03314C1608.72 16.9088 1595.47 31.7439 1594.43 20.0787C1593.39 8.41354 1581.87 12.2597 1576.24 15.6409C1578.41 18.3881 1577.8 24.7702 1558.06 28.3204C1538.31 31.8707 1549.83 38.2528 1558.06 41Z" fill="url(#paint0_linear)" fill-opacity="0.26"/>
<path d="M406.04 95H278.746H256.665C241.078 86.8851 250.17 77.6713 256.665 74.0787C264.025 81.0525 278.227 91.3229 276.149 76.6146C274.07 61.9064 286.107 60.7652 292.385 62.0331C299.529 68.7956 313.817 79.7845 313.817 69.6409C313.817 59.4972 318.58 60.3425 320.961 62.0331C326.806 68.7956 338.367 79.7845 337.847 69.6409C337.327 59.4972 344.991 60.3425 348.888 62.0331C355.382 70.9088 368.631 85.7439 369.67 74.0787C370.709 62.4135 382.227 66.2597 387.855 69.6409C385.69 72.3881 386.296 78.7702 406.04 82.3204C425.783 85.8707 414.266 92.2528 406.04 95Z" fill="url(#paint1_linear)"/>
<path d="M936.671 39H809.377H787.296C771.709 30.6464 780.801 21.1616 787.296 17.4634C794.656 24.6423 808.858 35.2148 806.779 20.0739C804.701 4.93301 816.738 3.75828 823.016 5.06353C830.16 12.0249 844.448 23.337 844.448 12.895C844.448 2.45305 849.211 3.3232 851.592 5.06353C857.437 12.0249 868.997 23.337 868.478 12.895C867.958 2.45305 875.622 3.3232 879.519 5.06353C886.013 14.2003 899.262 29.4717 900.301 17.4634C901.34 5.45512 912.857 9.41437 918.486 12.895C916.321 15.7231 916.927 22.2928 936.671 25.9475C956.414 29.6022 944.897 36.172 936.671 39Z" fill="url(#paint2_linear)" fill-opacity="0.32"/>
<path d="M1422.33 111H1295.04H1272.96C1257.37 102.885 1266.47 93.6713 1272.96 90.0787C1280.32 97.0525 1294.52 107.323 1292.44 92.6146C1290.37 77.9064 1302.4 76.7652 1308.68 78.0331C1315.82 84.7956 1330.11 95.7845 1330.11 85.6409C1330.11 75.4972 1334.87 76.3425 1337.26 78.0331C1343.1 84.7956 1354.66 95.7845 1354.14 85.6409C1353.62 75.4972 1361.29 76.3425 1365.18 78.0331C1371.68 86.9088 1384.93 101.744 1385.97 90.0787C1387 78.4135 1398.52 82.2597 1404.15 85.6409C1401.99 88.3881 1402.59 94.7702 1422.33 98.3204C1442.08 101.871 1430.56 108.253 1422.33 111Z" fill="url(#paint3_linear)" fill-opacity="0.26"/>
<path d="M653.268 496.876C630.703 495.015 617.77 474.782 614.124 464.898C608.064 454.2 596.248 460.44 591.098 464.898C586.493 472.805 542.36 492.225 520.869 500.946V687L1142.44 682.714V662.143L1013.05 604.439C1002.92 603.043 960.089 581.763 939.941 571.298C925.934 556.956 897.113 528.389 893.889 528.854C890.666 529.319 866.066 514.319 854.169 506.76C840.93 503.272 827.114 464.898 821.933 464.898C817.788 464.898 811.38 455.208 808.693 450.362C804.549 441.99 795.07 440.672 790.848 441.06C777.033 444.548 750.553 474.782 743.645 478.271C738.119 481.061 727.143 484.472 722.346 485.829C711.754 487.69 701.815 517.226 698.169 531.761L671.689 510.249L653.268 496.876Z" fill="#E85F42"/>
<path d="M501.915 463.843C479.257 461.982 466.272 441.745 462.611 431.859C456.526 421.159 444.662 427.401 439.491 431.859C434.867 439.768 390.553 459.19 368.975 467.913V654H984.547L904.783 643.473L859.121 608C848.948 606.604 815.903 605.674 795.673 595.207C781.608 580.862 758.4 487.118 735.245 528C710.485 571.714 691.307 521.353 679.362 513.794C666.068 510.304 658.407 471.137 655.664 466.69C645.26 449.826 653.737 427.341 651.04 422.495C646.878 414.121 644.296 407.629 640.058 408.016C626.186 411.506 599.598 441.745 592.662 445.234C587.113 448.025 576.092 451.437 571.275 452.794C560.64 454.655 550.66 484.196 546.999 498.734L520.411 477.218L501.915 463.843Z" fill="#B63634"/>
<path d="M298.404 463.843C310.432 461.982 317.325 441.745 319.268 431.859C322.498 421.159 328.796 427.401 331.541 431.859C333.996 439.768 357.52 459.19 368.975 467.913V654H42.2015L84.544 643.473L108.783 608C114.184 606.604 131.725 605.674 142.464 595.207C149.931 580.862 162.25 487.118 174.542 528C187.686 571.714 197.866 521.353 204.207 513.794C211.264 510.304 215.331 471.137 216.787 466.69C222.31 449.826 217.81 427.341 219.242 422.495C221.451 414.121 222.822 407.629 225.072 408.016C232.436 411.506 246.55 441.745 250.232 445.234C253.177 448.025 259.027 451.437 261.584 452.794C267.23 454.655 272.528 484.196 274.471 498.734L288.585 477.218L298.404 463.843Z" fill="#B63634"/>
<path fill-rule="evenodd" clip-rule="evenodd" d="M875.623 628.859L875.971 628.786V628.932L900.715 634.126L892.537 630.191C897.232 629.91 910.164 630.023 924.338 632.721L920.25 627.381C924.641 627.1 935.06 627.774 941.602 632.721C945.334 630.873 952.128 626.495 949.881 623.571C952.407 626.616 959.826 632.795 970.222 634.126L963.862 630.191L990.212 634.126C991.574 633.283 993.028 631.315 987.94 630.191C982.852 629.067 993.997 631.409 1000.21 632.721L1011.11 630.191V632.721C1017.02 631.784 1031.1 631.147 1040.18 636.093L1043.82 630.191L1046.09 634.126C1050.18 628.411 1058.9 616.87 1061.08 616.42C1061.71 616.29 1061.37 617.003 1060.71 618.37C1058.53 622.912 1052.88 634.676 1067.9 646.773L1071.08 641.152L1075.17 644.244C1077.59 638.716 1085.07 628.168 1095.61 630.191C1089.4 633.283 1077.53 640.421 1079.71 644.244C1088.95 641.433 1109.15 636.149 1116.05 637.498L1111.96 644.244L1116.05 642.698C1120.04 643.691 1126.64 645.409 1129.06 646.262C1128.78 645.339 1129.3 643.287 1129.85 641.129C1130.4 638.965 1130.98 636.693 1130.8 635.344C1131.13 635.528 1131.5 635.733 1131.9 635.957C1137.02 638.808 1147.85 644.835 1147.85 652.956L1152.85 644.244L1156.03 650.146L1164.21 648.459L1158.76 654.642C1164.66 653.143 1178.29 650.427 1185.56 651.551L1181.93 654.642C1186.01 653.612 1196.01 652.45 1203.28 656.048V648.459C1210.24 649.865 1225.36 655.148 1230.08 665.041L1233.26 656.048L1237.8 659.701V651.551C1237.8 650.427 1246.59 661.013 1250.98 666.446L1255.52 661.106C1259.76 661.575 1266.97 660.938 1261.88 654.642C1267.18 654.736 1277.78 657.846 1277.78 669.538L1302.77 665.041L1295.05 671.224L1302.77 669.538L1295.05 675.721C1301.25 673.472 1316.94 669.425 1330.03 671.224C1333.81 670.381 1341.84 669.875 1343.66 674.597C1344.87 672.161 1345.02 666.446 1335.93 663.074C1339.72 663.167 1348.56 665.434 1353.65 673.753L1357.28 671.224H1370.46L1363.64 674.597C1367.13 674.034 1374.82 673.079 1377.73 673.753L1379.09 669.538L1382.27 673.753V688.087H875.971H875.274H368.975V673.753L372.155 669.538L373.518 673.753C376.425 673.079 384.118 674.034 387.601 674.597L380.786 671.224H393.961L397.595 673.753C402.684 665.434 411.527 663.167 415.313 663.074C406.227 666.446 406.378 672.161 407.59 674.597C409.407 669.875 417.433 670.381 421.219 671.224C434.303 669.425 449.991 673.472 456.2 675.721L448.477 669.538L456.2 671.224L448.477 665.041L473.463 669.538C473.463 657.846 484.063 654.736 489.364 654.642C484.275 660.938 491.484 661.575 495.724 661.106L500.267 666.446C504.658 661.013 513.441 650.427 513.441 651.551V659.701L517.984 656.048L521.164 665.041C525.889 655.148 541.002 649.865 547.968 648.459V656.048C555.237 652.45 565.231 653.612 569.32 654.642L565.686 651.551C572.954 650.427 586.583 653.143 592.489 654.642L587.038 648.459L595.215 650.146L598.395 644.244L603.392 652.956C603.392 644.835 614.223 638.808 619.346 635.957C619.749 635.733 620.117 635.528 620.441 635.344C620.269 636.693 620.846 638.965 621.396 641.129C621.944 643.287 622.465 645.339 622.188 646.262C624.604 645.409 631.209 643.691 635.193 642.698L639.282 644.244L635.193 637.498C642.098 636.149 662.3 641.433 671.537 644.244C673.718 640.421 661.845 633.283 655.637 630.191C666.176 628.168 673.657 638.716 676.08 644.244L680.169 641.152L683.349 646.773C698.363 634.676 692.713 622.912 690.531 618.37C689.875 617.003 689.532 616.29 690.163 616.42C692.344 616.87 701.066 628.411 705.155 634.126L707.426 630.191L711.061 636.093C720.147 631.147 734.23 631.784 740.136 632.721V630.191L751.039 632.721C757.248 631.409 768.393 629.067 763.305 630.191C758.217 631.315 759.671 633.283 761.034 634.126L787.383 630.191L781.023 634.126C791.419 632.795 798.839 626.616 801.364 623.571C799.117 626.495 805.911 630.873 809.643 632.721C816.185 627.774 826.604 627.1 830.995 627.381L826.907 632.721C841.081 630.023 854.013 629.91 858.708 630.191L850.53 634.126L875.274 628.932V628.786L875.623 628.859ZM801.466 623.446C801.43 623.487 801.396 623.529 801.364 623.571C801.399 623.529 801.433 623.487 801.466 623.446ZM621.564 634.126C620.867 634.126 620.538 634.591 620.441 635.344C621.844 634.546 622.436 634.126 621.564 634.126ZM1129.68 634.126C1130.38 634.126 1130.71 634.591 1130.8 635.344C1129.4 634.546 1128.81 634.126 1129.68 634.126ZM949.779 623.446C949.815 623.487 949.849 623.529 949.881 623.571C949.846 623.529 949.812 623.487 949.779 623.446Z" fill="url(#paint4_linear)"/>
<path d="M339.138 588.896V613.999V616.953H322.414V595.787C322.021 590.274 316.348 588.896 313.561 588.896V306.854C324.972 302.916 337.007 277.977 341.598 266L355.862 292.58V297.994L361.273 296.518L359.305 300.455H363.24V305.378H366.683V310.3C380.456 308.823 381.44 322.113 378.564 322.605C376.264 322.999 375.26 325.723 375.045 327.035C379.767 330.579 384.883 332.45 386.85 332.942L373.078 343.771L365.208 341.802L366.683 346.724C386.359 347.118 391.933 351.154 392.261 353.123C391.769 366.905 398.655 369.366 396.196 369.366C394.229 369.366 385.539 375.601 381.44 378.718H375.045C373.078 378.718 372.914 382.328 373.078 384.133H378.564L397.672 392.993L384.883 393.977L385.867 397.915C399.246 396.34 405.87 402.837 407.509 406.283C397.278 412.583 394.72 410.877 394.72 409.236L386.85 416.127C393.54 414.946 395.868 416.619 396.196 417.604L394.72 423.018L397.672 420.557V425.479L401.607 423.018L405.542 428.433C400.623 430.894 389.31 432.37 386.85 432.863C384.883 433.256 385.375 435.98 385.867 437.292L389.31 436.8V440.738C393.245 439.951 413.904 446.645 423.741 450.09L398.655 457.474L428.168 472.24C410.067 476.965 396.032 477.162 391.277 476.67L393.245 486.022C405.05 484.053 412.92 491.437 415.379 495.374L420.298 496.359L425.217 508.172L421.774 509.649C428.07 512.011 426.693 514.243 425.217 515.063C398.467 514.047 389.224 512.228 387.27 511.114C389.554 514.155 385.407 517.599 382.915 519.001L410.461 522.447C423.446 532.291 419.478 535.736 415.871 536.229C408.985 541.151 425.217 557.394 421.282 557.394H410.461C407.706 558.575 400.131 557.886 396.688 557.394L394.229 562.316C418.822 560.347 426.201 585.451 425.217 585.451C424.233 585.451 410.952 592.342 406.526 592.834C402.099 593.326 389.802 588.896 388.818 587.42C388.031 586.238 384.555 589.224 382.915 590.865L379.964 585.451H368.159C366.355 583.482 362.847 579.839 363.24 581.021C363.634 582.202 361.437 583.482 360.289 583.974V579.544L356.354 581.021L348.484 579.544L346.516 585.451C342.581 582.694 339.958 586.599 339.138 588.896Z" fill="url(#paint5_linear)"/>
<path d="M324.911 587.94V613.046V616H339.347V594.832C339.687 589.318 344.584 587.94 346.99 587.94V305.86C337.14 301.921 343.31 280.979 339.347 269L310.475 291.583V296.999L305.804 295.522L307.503 299.46H304.106V304.383H301.134V309.306C289.245 307.829 288.396 321.121 290.878 321.613C292.864 322.007 293.73 324.731 293.916 326.043C289.839 329.588 285.424 331.459 283.725 331.951L295.614 342.781L302.407 340.812L301.134 345.735C284.15 346.129 279.338 350.166 279.055 352.135C279.479 365.919 273.535 368.38 275.658 368.38C277.356 368.38 284.857 374.616 288.396 377.734H293.916C295.614 377.734 295.755 381.344 295.614 383.149H290.878L274.384 392.01L285.424 392.994L284.574 396.933C273.025 395.357 267.307 401.856 265.892 405.302C274.724 411.603 276.932 409.896 276.932 408.255L283.725 415.147C277.951 413.966 275.941 415.64 275.658 416.624L276.932 422.039L274.384 419.578V424.501L270.987 422.039L267.59 427.454C271.836 429.916 281.602 431.393 283.725 431.885C285.424 432.279 284.999 435.003 284.574 436.316L281.602 435.823V439.762C278.205 438.974 260.372 445.669 251.88 449.115L273.535 456.499L248.059 471.268C263.684 475.994 275.799 476.191 279.904 475.699L278.205 485.052C268.015 483.083 261.221 490.467 259.098 494.405L254.853 495.39L250.607 507.205L253.579 508.682C248.144 511.045 249.333 513.276 250.607 514.097C273.697 513.08 281.677 511.262 283.363 510.147C281.392 513.188 284.972 516.633 287.122 518.035L263.344 521.481C252.135 531.327 255.56 534.773 258.674 535.265C264.618 540.188 250.607 556.433 254.003 556.433H263.344C265.722 557.615 272.261 556.926 275.233 556.433L277.356 561.356C256.126 559.387 249.757 584.494 250.607 584.494C251.456 584.494 262.92 591.386 266.741 591.878C270.563 592.37 281.178 587.94 282.027 586.463C282.706 585.281 285.707 588.268 287.122 589.909L289.67 584.494H299.86C301.417 582.525 304.446 578.882 304.106 580.063C303.766 581.245 305.663 582.525 306.653 583.017V578.586L310.05 580.063L316.844 578.586L318.542 584.494C321.939 581.737 324.203 585.642 324.911 587.94Z" fill="url(#paint6_linear)"/>
<path fill-rule="evenodd" clip-rule="evenodd" d="M526.865 608.124V610.139C525.709 610.139 523.702 610.545 522.554 611.934V624.804V626.529L521.693 626.529H511.923V624.804V611.933C510.774 610.545 508.768 610.139 507.612 610.139V608.124L506.463 604.676L501.865 605.538L499.567 604.676V607.263C498.896 606.976 497.613 606.228 497.842 605.538C498.072 604.848 496.023 606.976 494.969 608.126H488.073L486.348 611.289C485.391 610.331 483.36 608.586 482.9 609.276C482.325 610.139 475.142 612.727 472.556 612.439C470.878 612.253 467.026 610.494 464.368 609.281C462.928 608.624 461.838 608.126 461.636 608.126C461.062 608.126 465.372 593.461 479.739 594.611L478.303 591.736C476.291 592.023 471.866 592.426 470.257 591.736H463.935C463.046 591.736 463.918 590.318 465.09 588.413C466.949 585.388 469.564 581.135 467.096 579.371C464.989 579.084 462.671 577.071 470.257 571.32L486.348 569.307C484.893 568.488 482.47 566.476 483.805 564.699C482.663 565.35 477.263 566.413 461.636 567.006C460.774 566.527 459.97 565.224 463.648 563.843L461.636 562.981L464.51 556.079L467.383 555.504C468.82 553.204 473.418 548.891 480.314 550.041L481.463 544.577C478.686 544.865 470.487 544.75 459.912 541.99L477.153 533.363L462.498 529.05C468.245 527.037 480.314 523.126 482.613 523.586V521.286L484.624 521.573C484.912 520.807 485.199 519.215 484.05 518.985C483.78 518.931 483.328 518.857 482.753 518.763C480.264 518.354 475.465 517.565 473.13 516.397L475.429 513.234L477.728 514.672V511.797L479.452 513.234L478.59 510.071C478.781 509.496 480.142 508.519 484.05 509.209L479.452 505.183C479.452 506.141 477.958 507.138 471.981 503.458C472.939 501.445 476.808 497.649 484.624 498.569L485.199 496.269L477.728 495.694L488.89 490.518H492.095C492.191 489.464 492.095 487.355 490.946 487.355H487.21C484.816 485.534 479.739 481.891 478.59 481.891C478.122 481.891 478.233 481.739 478.586 481.255C479.316 480.253 481.083 477.831 480.889 472.402C481.08 471.252 484.337 468.894 495.831 468.664L496.693 465.789L492.095 466.939L484.05 460.613C485.199 460.325 488.187 459.232 490.946 457.162C490.821 456.395 490.234 454.804 488.89 454.574C487.21 454.287 487.785 446.523 495.831 447.385V444.51H497.842V441.634H500.141L498.992 439.334L502.153 440.197V437.033L516.808 420.068C516.839 420.149 516.87 420.232 516.9 420.315C516.963 420.131 517.028 419.953 517.094 419.78L532.324 437.033V440.196L535.485 439.334L534.335 441.634H536.634V444.51H538.646V447.385C546.691 446.523 547.266 454.286 545.586 454.574C544.243 454.804 543.656 456.395 543.531 457.162C546.289 459.232 549.278 460.325 550.427 460.613L542.381 466.939L537.784 465.788L538.646 468.664C550.14 468.894 553.396 471.252 553.588 472.402C553.394 477.831 555.16 480.253 555.891 481.255C556.243 481.739 556.355 481.891 555.887 481.891C554.737 481.891 549.661 485.534 547.266 487.355H543.531C542.381 487.355 542.285 489.463 542.381 490.518H545.586L556.749 495.694L549.278 496.269L549.852 498.569C557.668 497.649 561.538 501.445 562.496 503.458C556.519 507.138 555.025 506.141 555.025 505.183L550.427 509.209C554.335 508.519 555.695 509.496 555.887 510.071L555.025 513.234L556.749 511.797V514.672L559.048 513.234L561.346 516.397C559.012 517.565 554.213 518.354 551.723 518.763C551.148 518.857 550.697 518.931 550.427 518.985C549.278 519.215 549.565 520.807 549.852 521.573L551.864 521.286V523.586C554.163 523.126 566.231 527.037 571.978 529.05L557.323 533.363L574.564 541.989C563.99 544.75 555.791 544.865 553.013 544.577L554.163 550.041C561.059 548.891 565.657 553.204 567.093 555.504L569.967 556.079L572.84 562.981L570.829 563.843C574.507 565.224 573.702 566.527 572.84 567.006C557.213 566.412 551.813 565.35 550.672 564.699C552.006 566.476 549.584 568.488 548.128 569.307L564.22 571.32C571.806 577.071 569.488 579.083 567.381 579.371C564.913 581.135 567.528 585.388 569.387 588.413C570.559 590.318 571.43 591.736 570.542 591.736H564.22C562.611 592.426 558.185 592.023 556.174 591.736L554.737 594.611C569.105 593.461 573.415 608.126 572.84 608.126C572.638 608.126 571.549 608.623 570.108 609.281C567.451 610.494 563.598 612.253 561.921 612.439C559.335 612.727 552.151 610.139 551.576 609.276C551.117 608.586 549.086 610.331 548.128 611.289L546.404 608.126H539.508C538.454 606.976 536.404 604.848 536.634 605.538C536.864 606.228 535.581 606.976 534.91 607.263V604.675L532.611 605.538L528.014 604.675L526.865 608.124Z" fill="url(#paint7_linear)"/>
<path fill-rule="evenodd" clip-rule="evenodd" d="M1010.36 610.344V612.359C1009.2 612.359 1007.19 612.765 1006.04 614.153V627.024V628.749L1005.18 628.749H995.413V627.024V614.153C994.264 612.765 992.258 612.359 991.102 612.359V610.344L989.953 606.895L985.356 607.758L983.057 606.895V609.483C982.386 609.196 981.103 608.448 981.333 607.758C981.563 607.068 979.513 609.196 978.459 610.346H971.563L969.839 613.509C968.881 612.55 966.85 610.806 966.39 611.496C965.816 612.359 958.632 614.947 956.046 614.659C954.369 614.473 950.516 612.714 947.859 611.501C946.418 610.843 945.328 610.346 945.126 610.346C944.552 610.346 948.862 595.681 963.23 596.831L961.793 593.955C959.781 594.243 955.356 594.645 953.747 593.955H947.425C946.537 593.955 947.408 592.538 948.58 590.632C950.439 587.608 953.054 583.355 950.586 581.591C948.479 581.303 946.161 579.29 953.747 573.539L969.839 571.526C968.383 570.707 965.961 568.695 967.295 566.919C966.153 567.57 960.753 568.632 945.126 569.226C944.264 568.747 943.46 567.443 947.138 566.063L945.126 565.2L948 558.299L950.873 557.724C952.31 555.424 956.908 551.11 963.804 552.261L964.954 546.797C962.176 547.085 953.977 546.97 943.402 544.209L960.643 535.583L945.989 531.269C951.736 529.256 963.804 525.346 966.103 525.806V523.505L968.115 523.793C968.402 523.026 968.689 521.435 967.54 521.205C967.27 521.151 966.819 521.077 966.244 520.982C963.754 520.574 958.955 519.785 956.62 518.617L958.919 515.454L961.218 516.892V514.016L962.942 515.454L962.08 512.291C962.272 511.716 963.632 510.738 967.54 511.428L962.942 507.403C962.942 508.361 961.448 509.358 955.471 505.677C956.429 503.664 960.299 499.869 968.115 500.789L968.689 498.489L961.218 497.913L972.38 492.738H975.586C975.681 491.683 975.586 489.574 974.436 489.574H970.701C968.306 487.753 963.23 484.111 962.08 484.111C961.612 484.111 961.723 483.958 962.076 483.475C962.807 482.473 964.573 480.051 964.379 474.622C964.571 473.472 967.827 471.114 979.321 470.884L980.183 468.008L975.586 469.158L967.54 462.832C968.689 462.545 971.678 461.452 974.436 459.382C974.311 458.615 973.724 457.024 972.38 456.794C970.701 456.506 971.275 448.742 979.321 449.605V446.729H981.333V443.854H983.632L982.482 441.553L985.643 442.416V439.253L1000.3 422.288C1000.33 422.369 1000.36 422.451 1000.39 422.535C1000.45 422.351 1000.52 422.173 1000.58 422L1015.81 439.253V442.416L1018.97 441.553L1017.83 443.854H1020.12V446.729H1022.14V449.605C1030.18 448.742 1030.76 456.506 1029.08 456.794C1027.73 457.024 1027.15 458.615 1027.02 459.382C1029.78 461.452 1032.77 462.545 1033.92 462.832L1025.87 469.158L1021.27 468.008L1022.14 470.884C1033.63 471.114 1036.89 473.472 1037.08 474.622C1036.88 480.051 1038.65 482.473 1039.38 483.475C1039.73 483.958 1039.84 484.111 1039.38 484.111C1038.23 484.111 1033.15 487.753 1030.76 489.574H1027.02C1025.87 489.574 1025.78 491.683 1025.87 492.737H1029.08L1040.24 497.913L1032.77 498.488L1033.34 500.789C1041.16 499.869 1045.03 503.664 1045.99 505.677C1040.01 509.358 1038.51 508.361 1038.51 507.403L1033.92 511.428C1037.83 510.738 1039.19 511.716 1039.38 512.291L1038.51 515.454L1040.24 514.016V516.892L1042.54 515.454L1044.84 518.617C1042.5 519.785 1037.7 520.573 1035.21 520.982C1034.64 521.077 1034.19 521.151 1033.92 521.205C1032.77 521.435 1033.06 523.026 1033.34 523.793L1035.35 523.505V525.806C1037.65 525.346 1049.72 529.256 1055.47 531.269L1040.81 535.583L1058.05 544.209C1047.48 546.97 1039.28 547.085 1036.5 546.797L1037.65 552.26C1044.55 551.11 1049.15 555.424 1050.58 557.724L1053.46 558.299L1056.33 565.2L1054.32 566.063C1058 567.443 1057.19 568.747 1056.33 569.226C1040.7 568.632 1035.3 567.57 1034.16 566.919C1035.5 568.695 1033.07 570.707 1031.62 571.526L1047.71 573.539C1055.3 579.29 1052.98 581.303 1050.87 581.591C1048.4 583.355 1051.02 587.608 1052.88 590.632C1054.05 592.538 1054.92 593.955 1054.03 593.955H1047.71C1046.1 594.645 1041.68 594.243 1039.66 593.955L1038.23 596.831C1052.6 595.681 1056.91 610.346 1056.33 610.346C1056.13 610.346 1055.04 610.843 1053.6 611.501C1050.94 612.714 1047.09 614.472 1045.41 614.659C1042.83 614.947 1035.64 612.359 1035.07 611.496C1034.61 610.806 1032.58 612.55 1031.62 613.509L1029.89 610.346H1023C1021.94 609.196 1019.89 607.068 1020.12 607.758C1020.35 608.448 1019.07 609.195 1018.4 609.483V606.895L1016.1 607.758L1011.5 606.895L1010.36 610.344Z" fill="url(#paint8_linear)"/>
<path d="M390.506 608.986L417.534 618.036L408.846 611.367C413.834 610.891 427.573 611.082 442.632 615.655L438.288 606.604C442.954 606.127 454.022 607.271 460.972 615.655C464.938 612.524 472.156 605.102 469.768 600.146C469.731 600.074 469.695 600.004 469.66 599.935C469.698 600.005 469.734 600.075 469.768 600.146C472.452 605.307 480.335 615.781 491.379 618.036L484.622 611.367L512.616 618.036C514.064 616.607 515.608 613.273 510.203 611.367C504.797 609.462 516.638 613.432 523.234 615.655L534.818 611.367V615.655C541.092 614.067 556.054 612.987 565.707 621.371L569.568 611.367L571.982 618.036C576.325 608.35 585.592 588.788 587.909 588.026C590.805 587.073 574.395 612.796 595.149 639.473L598.527 629.946L602.871 635.186C605.445 625.817 613.393 607.938 624.59 611.367C617.994 616.607 605.381 628.707 607.697 635.186C617.511 630.422 638.973 621.466 646.309 623.753L641.965 635.186L646.309 632.566C650.192 634.109 656.418 636.687 659.402 638.219C657.377 634.383 656.635 622.774 660.789 618.036C663.335 615.132 680.095 630.422 680.095 649.953L685.404 635.186L688.782 645.189L697.47 642.331L691.678 652.811C697.953 650.27 712.432 645.665 720.154 647.571L716.293 652.811C720.637 651.064 731.255 649.095 738.978 655.193V642.331C746.378 644.713 762.434 653.668 767.454 670.436L770.832 655.193L775.659 661.385V647.571C775.659 645.665 784.99 663.608 789.656 672.818L794.482 663.767C798.987 664.561 806.645 663.481 801.239 652.811C806.87 652.97 818.132 658.241 818.132 678.058L844.678 670.436L836.473 680.916L844.678 678.058L836.473 688.538C843.069 684.727 859.736 677.868 873.637 680.916C877.659 679.487 886.185 678.63 888.116 686.633C889.403 682.504 889.564 672.818 879.911 667.102C883.933 667.261 893.329 671.103 898.734 685.204L902.595 680.916H916.592L909.352 686.633C913.053 685.68 921.226 684.06 924.315 685.204L925.763 678.058L929.141 685.204V709.498H390.506V608.986Z" fill="url(#paint9_linear)"/>
<path d="M390.959 607.9L371.052 616.913L377.45 610.272C373.777 609.797 363.658 609.987 352.566 614.541L355.766 605.527C352.329 605.053 344.177 606.192 339.058 614.541C336.137 611.423 330.821 604.032 332.579 599.096C332.607 599.025 332.633 598.955 332.659 598.886C332.631 598.955 332.604 599.025 332.579 599.096C330.603 604.236 324.797 614.667 316.662 616.913L321.639 610.272L301.021 616.913C299.954 615.49 298.817 612.169 302.798 610.272C306.779 608.374 298.058 612.327 293.2 614.541L284.668 610.272V614.541C280.047 612.96 269.027 611.885 261.917 620.234L259.073 610.272L257.296 616.913C254.096 607.267 247.271 587.785 245.564 587.026C243.432 586.077 255.518 611.695 240.232 638.262L237.744 628.774L234.544 633.992C232.648 624.662 226.795 606.856 218.547 610.272C223.406 615.49 232.696 627.54 230.989 633.992C223.761 629.248 207.954 620.329 202.55 622.606L205.75 633.992L202.55 631.383C199.691 632.92 195.105 635.488 192.907 637.013C194.399 633.193 194.945 621.632 191.886 616.913C190.01 614.021 177.666 629.248 177.666 648.699L173.756 633.992L171.267 643.955L164.869 641.108L169.135 651.545C164.513 649.015 153.849 644.429 148.161 646.327L151.005 651.545C147.805 649.806 139.984 647.845 134.297 653.917V641.108C128.846 643.48 117.02 652.399 113.323 669.098L110.835 653.917L107.28 660.085V646.327C107.28 644.429 100.407 662.299 96.9705 671.47L93.4156 662.457C90.0977 663.247 84.4573 662.172 88.4388 651.545C84.2914 651.703 75.9967 656.954 75.9967 676.689L56.4449 669.098L62.4881 679.535L56.4449 676.689L62.4881 687.126C57.6298 683.331 45.3536 676.499 35.1156 679.535C32.1532 678.112 25.8729 677.258 24.451 685.228C23.503 681.117 23.3845 671.47 30.4942 665.778C27.5318 665.936 20.6117 669.763 16.6302 683.805L13.7863 679.535H3.47714L8.80948 685.228C6.08408 684.28 0.0644531 682.667 -2.21066 683.805L-3.27713 676.689L-5.76553 683.805V708H390.959V607.9Z" fill="url(#paint10_linear)"/>
<path d="M1555.15 603.987L1578.97 611.958L1571.31 606.085C1575.71 605.665 1587.82 605.833 1601.09 609.86L1597.26 601.89C1601.37 601.47 1611.12 602.477 1617.25 609.86C1620.74 607.103 1627.1 600.567 1625 596.202C1624.97 596.139 1624.94 596.077 1624.9 596.016C1624.94 596.078 1624.97 596.14 1625 596.202C1627.36 600.748 1634.31 609.972 1644.04 611.958L1638.09 606.085L1662.76 611.958C1664.04 610.699 1665.4 607.763 1660.63 606.085C1655.87 604.407 1666.3 607.903 1672.12 609.86L1682.32 606.085V609.86C1687.85 608.462 1701.04 607.511 1709.55 614.895L1712.95 606.085L1715.08 611.958C1718.9 603.428 1727.07 586.2 1729.11 585.528C1731.66 584.689 1717.2 607.343 1735.49 630.836L1738.47 622.446L1742.3 627.061C1744.56 618.81 1751.57 603.064 1761.44 606.085C1755.62 610.7 1744.51 621.355 1746.55 627.061C1755.2 622.866 1774.11 614.979 1780.58 616.992L1776.75 627.061L1780.58 624.753C1784 626.113 1789.48 628.383 1792.11 629.733C1790.33 626.354 1789.68 616.13 1793.34 611.958C1795.58 609.4 1810.35 622.866 1810.35 640.066L1815.03 627.061L1818.01 635.871L1825.66 633.354L1820.56 642.583C1826.09 640.346 1838.85 636.29 1845.65 637.968L1842.25 642.583C1846.08 641.045 1855.43 639.311 1862.24 644.681V633.354C1868.76 635.451 1882.91 643.338 1887.33 658.105L1890.31 644.681L1894.57 650.134V637.968C1894.57 636.29 1902.79 652.092 1906.9 660.203L1911.15 652.232C1915.12 652.931 1921.87 651.98 1917.11 642.583C1922.07 642.723 1931.99 647.366 1931.99 664.818L1955.39 658.105L1948.16 667.335L1955.39 664.818L1948.16 674.047C1953.97 670.691 1968.66 664.65 1980.91 667.335C1984.45 666.076 1991.97 665.321 1993.67 672.369C1994.8 668.733 1994.94 660.203 1986.44 655.169C1989.98 655.308 1998.26 658.693 2003.02 671.11L2006.43 667.335H2018.76L2012.38 672.369C2015.64 671.53 2022.85 670.103 2025.57 671.11L2026.84 664.818L2029.82 671.11V692.506H1555.15V603.987Z" fill="url(#paint11_linear)"/>
<path d="M1423.24 611.464L1363.01 587.116L1372.87 579.541C1367.21 579 1351.63 579.216 1334.55 584.411L1339.47 574.131C1334.18 573.589 1321.62 574.888 1313.74 584.411C1309.24 580.854 1301.06 572.425 1303.76 566.795C1303.81 566.714 1303.85 566.634 1303.89 566.556C1303.84 566.635 1303.8 566.715 1303.76 566.795C1300.72 572.658 1291.78 584.554 1279.25 587.116L1286.91 579.541L1255.16 587.116C1253.52 585.493 1251.77 581.705 1257.9 579.541C1264.03 577.377 1250.6 581.886 1243.12 584.411L1229.98 579.541V584.411C1222.86 582.607 1205.89 581.381 1194.94 590.903L1190.56 579.541L1187.82 587.116C1182.89 576.114 1172.38 553.895 1169.75 553.029C1166.47 551.947 1185.08 581.164 1161.54 611.464L1157.71 600.643L1152.78 606.594C1149.86 595.953 1140.85 575.645 1128.15 579.541C1135.63 585.493 1149.94 599.236 1147.31 606.594C1136.18 601.184 1111.83 591.012 1103.51 593.609L1108.44 606.594L1103.51 603.618C1099.1 605.372 1092.04 608.3 1088.66 610.04C1090.95 605.683 1091.8 592.497 1087.08 587.116C1084.2 583.817 1065.19 601.184 1065.19 623.367L1059.16 606.594L1055.33 617.957L1045.48 614.71L1052.05 626.614C1044.93 623.728 1028.5 618.498 1019.75 620.662L1024.12 626.614C1019.2 624.63 1007.15 622.393 998.393 629.319V614.71C989.999 617.416 971.786 627.588 966.092 646.633L962.26 629.319L956.785 636.353V620.662C956.785 618.498 946.201 638.878 940.908 649.338L935.433 639.058C930.324 639.96 921.637 638.733 927.769 626.614C921.381 626.794 908.607 632.782 908.607 655.29L878.496 646.633L887.803 658.536L878.496 655.29L887.803 667.193C880.321 662.865 861.414 655.073 845.647 658.536C841.085 656.913 831.413 655.939 829.223 665.029C827.763 660.34 827.58 649.338 838.53 642.845C833.967 643.026 823.31 647.39 817.178 663.406L812.798 658.536H796.921L805.134 665.029C800.936 663.947 791.666 662.107 788.162 663.406L786.519 655.29L782.687 663.406V691H1393.67L1423.24 611.464Z" fill="url(#paint12_linear)"/>
<path d="M1589.13 603.987L1565.31 611.958L1572.96 606.085C1568.57 605.665 1556.46 605.833 1543.19 609.86L1547.02 601.89C1542.91 601.47 1533.15 602.477 1527.03 609.86C1523.53 607.103 1517.17 600.567 1519.28 596.202C1519.31 596.139 1519.34 596.077 1519.37 596.016C1519.34 596.078 1519.31 596.14 1519.28 596.202C1516.91 600.748 1509.97 609.972 1500.23 611.958L1506.19 606.085L1481.52 611.958C1480.24 610.699 1478.88 607.763 1483.64 606.085C1488.41 604.407 1477.97 607.903 1472.16 609.86L1461.95 606.085V609.86C1456.42 608.462 1443.24 607.511 1434.73 614.895L1431.33 606.085L1429.2 611.958C1425.37 603.428 1417.21 586.2 1415.17 585.528C1412.61 584.689 1427.08 607.343 1408.79 630.836L1405.81 622.446L1401.98 627.061C1399.71 618.81 1392.71 603.064 1382.84 606.085C1388.65 610.7 1399.77 621.355 1397.73 627.061C1389.08 622.866 1370.17 614.979 1363.7 616.992L1367.53 627.061L1363.7 624.753C1360.28 626.113 1354.79 628.383 1352.16 629.733C1353.95 626.354 1354.6 616.13 1350.94 611.958C1348.7 609.4 1333.93 622.866 1333.93 640.066L1329.25 627.061L1326.27 635.871L1318.62 633.354L1323.72 642.583C1318.19 640.346 1305.43 636.29 1298.63 637.968L1302.03 642.583C1298.2 641.045 1288.84 639.311 1282.04 644.681V633.354C1275.52 635.451 1261.37 643.338 1256.94 658.105L1253.97 644.681L1249.71 650.134V637.968C1249.71 636.29 1241.49 652.092 1237.38 660.203L1233.12 652.232C1229.15 652.931 1222.41 651.98 1227.17 642.583C1222.21 642.723 1212.28 647.366 1212.28 664.818L1188.89 658.105L1196.12 667.335L1188.89 664.818L1196.12 674.047C1190.31 670.691 1175.62 664.65 1163.37 667.335C1159.83 666.076 1152.31 665.321 1150.61 672.369C1149.48 668.733 1149.33 660.203 1157.84 655.169C1154.3 655.308 1146.02 658.693 1141.25 671.11L1137.85 667.335H1125.52L1131.9 672.369C1128.63 671.53 1121.43 670.103 1118.71 671.11L1117.43 664.818L1114.46 671.11V692.506H1589.13V603.987Z" fill="url(#paint13_linear)"/>
</g>
<defs>
<linearGradient id="paint0_linear" x1="1631.6" y1="7" x2="1631.6" y2="41" gradientUnits="userSpaceOnUse">
<stop stop-color="#FAEFEC"/>
<stop offset="1" stop-color="#EDC388"/>
</linearGradient>
<linearGradient id="paint1_linear" x1="332.5" y1="61" x2="332.5" y2="95" gradientUnits="userSpaceOnUse">
<stop stop-color="#FAEFEC"/>
<stop offset="1" stop-color="#EDC388"/>
</linearGradient>
<linearGradient id="paint2_linear" x1="863.131" y1="4" x2="863.131" y2="39" gradientUnits="userSpaceOnUse">
<stop stop-color="#FAEFEC"/>
<stop offset="1" stop-color="#EDC388"/>
</linearGradient>
<linearGradient id="paint3_linear" x1="1348.79" y1="77" x2="1348.79" y2="111" gradientUnits="userSpaceOnUse">
<stop stop-color="#FAEFEC"/>
<stop offset="1" stop-color="#EDC388"/>
</linearGradient>
<linearGradient id="paint4_linear" x1="701.066" y1="626.241" x2="700.719" y2="688.356" gradientUnits="userSpaceOnUse">
<stop stop-color="#F55B46"/>
<stop offset="0.68421" stop-color="#FF936A"/>
</linearGradient>
<linearGradient id="paint5_linear" x1="370.864" y1="266" x2="370.864" y2="616.953" gradientUnits="userSpaceOnUse">
<stop stop-color="#1D1017"/>
<stop offset="1" stop-color="#4F1A33"/>
</linearGradient>
<linearGradient id="paint6_linear" x1="297.525" y1="265" x2="297.525" y2="616" gradientUnits="userSpaceOnUse">
<stop stop-color="#1D1017"/>
<stop offset="1" stop-color="#4F1A33"/>
</linearGradient>
<linearGradient id="paint7_linear" x1="493.388" y1="421.506" x2="493.388" y2="626.529" gradientUnits="userSpaceOnUse">
<stop stop-color="#1D1017"/>
<stop offset="1" stop-color="#4F1A33"/>
</linearGradient>
<linearGradient id="paint8_linear" x1="976.879" y1="423.725" x2="976.879" y2="628.749" gradientUnits="userSpaceOnUse">
<stop stop-color="#1D1017"/>
<stop offset="1" stop-color="#4F1A33"/>
</linearGradient>
<linearGradient id="paint9_linear" x1="576.325" y1="604.673" x2="577.266" y2="709.949" gradientUnits="userSpaceOnUse">
<stop stop-color="#B53635"/>
<stop offset="0.68421" stop-color="#2B131E"/>
</linearGradient>
<linearGradient id="paint10_linear" x1="254.096" y1="603.604" x2="252.83" y2="708.442" gradientUnits="userSpaceOnUse">
<stop stop-color="#B53635"/>
<stop offset="0.68421" stop-color="#2B131E"/>
</linearGradient>
<linearGradient id="paint11_linear" x1="1718.9" y1="600.189" x2="1719.73" y2="692.903" gradientUnits="userSpaceOnUse">
<stop stop-color="#B53635"/>
<stop offset="0.68421" stop-color="#2B131E"/>
</linearGradient>
<linearGradient id="paint12_linear" x1="1182.89" y1="571.937" x2="1181.82" y2="691.512" gradientUnits="userSpaceOnUse">
<stop stop-color="#B53635"/>
<stop offset="0.68421" stop-color="#2B131E"/>
</linearGradient>
<linearGradient id="paint13_linear" x1="1425.37" y1="600.189" x2="1424.55" y2="692.903" gradientUnits="userSpaceOnUse">
<stop stop-color="#B53635"/>
<stop offset="0.68421" stop-color="#2B131E"/>
</linearGradient>
</defs>
</svg>
