<svg width="32" height="32" viewBox="0 0 32 32" fill="none" xmlns="http://www.w3.org/2000/svg">
<path d="M15.9993 2.66669C23.362 2.66669 29.3327 7.97069 29.3327 14.5187C29.3316 16.483 28.5508 18.3665 27.1617 19.7553C25.7726 21.1441 23.889 21.9246 21.9247 21.9254H19.3033C18.074 21.9254 17.0807 22.9187 17.0807 24.148C17.0807 24.7107 17.3033 25.2294 17.6433 25.6147C17.9993 26.0147 18.222 26.5334 18.222 27.1107C18.222 28.3414 17.1993 29.3334 15.9993 29.3334C8.63668 29.3334 2.66602 23.3627 2.66602 16C2.66602 8.63735 8.63668 2.66669 15.9993 2.66669ZM14.414 24.148C14.4135 23.5058 14.5396 22.8698 14.7851 22.2763C15.0306 21.6829 15.3908 21.1437 15.8449 20.6896C16.299 20.2354 16.8382 19.8753 17.4317 19.6298C18.0251 19.3843 18.6611 19.2582 19.3033 19.2587H21.9247C23.1815 19.258 24.3866 18.7586 25.2756 17.8701C26.1645 16.9817 26.6646 15.7768 26.666 14.52C26.666 9.51869 21.9567 5.33335 15.9993 5.33335C13.2468 5.33084 10.5998 6.3925 8.61185 8.29636C6.6239 10.2002 5.44889 12.7989 5.33249 15.549C5.2161 18.2991 6.16733 20.9877 7.9873 23.0527C9.80728 25.1177 12.3551 26.3993 15.098 26.6294C14.6516 25.8791 14.4153 25.0224 14.414 24.1494V24.148ZM9.99935 16C9.46892 16 8.96021 15.7893 8.58514 15.4142C8.21006 15.0392 7.99935 14.5305 7.99935 14C7.99935 13.4696 8.21006 12.9609 8.58514 12.5858C8.96021 12.2107 9.46892 12 9.99935 12C10.5298 12 11.0385 12.2107 11.4136 12.5858C11.7886 12.9609 11.9993 13.4696 11.9993 14C11.9993 14.5305 11.7886 15.0392 11.4136 15.4142C11.0385 15.7893 10.5298 16 9.99935 16ZM21.9993 16C21.4689 16 20.9602 15.7893 20.5851 15.4142C20.2101 15.0392 19.9993 14.5305 19.9993 14C19.9993 13.4696 20.2101 12.9609 20.5851 12.5858C20.9602 12.2107 21.4689 12 21.9993 12C22.5298 12 23.0385 12.2107 23.4136 12.5858C23.7886 12.9609 23.9993 13.4696 23.9993 14C23.9993 14.5305 23.7886 15.0392 23.4136 15.4142C23.0385 15.7893 22.5298 16 21.9993 16ZM15.9993 12C15.4689 12 14.9602 11.7893 14.5851 11.4142C14.2101 11.0392 13.9993 10.5305 13.9993 10C13.9993 9.46959 14.2101 8.96088 14.5851 8.58581C14.9602 8.21073 15.4689 8.00002 15.9993 8.00002C16.5298 8.00002 17.0385 8.21073 17.4136 8.58581C17.7886 8.96088 17.9993 9.46959 17.9993 10C17.9993 10.5305 17.7886 11.0392 17.4136 11.4142C17.0385 11.7893 16.5298 12 15.9993 12Z" fill="#1D1017"/>
</svg>
